<svg width="28" height="27" viewBox="0 0 28 27" fill="none" xmlns="http://www.w3.org/2000/svg">
<g clip-path="url(#clip0)">
<path d="M26.9797 15.4418C26.7035 15.3724 26.4273 15.4418 26.1856 15.6151C25.288 16.3778 24.2522 17.0019 23.1128 17.418C22.0426 17.834 20.8687 18.042 19.6258 18.042C16.8292 18.042 14.2743 16.8979 12.4445 15.0604C10.6146 13.2229 9.47526 10.6573 9.47526 7.84897C9.47526 6.67019 9.68241 5.52607 10.0277 4.48596C10.4074 3.37652 10.9599 2.37108 11.6849 1.50432C11.9956 1.12295 11.9266 0.568229 11.5468 0.256197C11.3051 0.0828459 11.0289 0.0135055 10.7527 0.0828459C7.81803 0.880261 5.26314 2.64844 3.43329 5.00602C1.67249 7.32892 0.636719 10.2065 0.636719 13.3269C0.636719 17.1059 2.15584 20.5383 4.64168 23.0345C7.12752 25.5308 10.511 27.0563 14.3088 27.0563C17.4852 27.0563 20.4199 25.9468 22.7676 24.1093C25.1499 22.2371 26.8761 19.5675 27.6012 16.5165C27.7393 16.0311 27.4631 15.5458 26.9797 15.4418Z" fill="#8D8D8D"/>
</g>
<defs>
<clipPath id="clip0">
<rect width="27" height="27" fill="white" transform="translate(0.636719)"/>
</clipPath>
</defs>
</svg>
