<svg width="27" height="26" viewBox="0 0 27 26" fill="none" xmlns="http://www.w3.org/2000/svg">
<g clip-path="url(#clip0)">
<path d="M24.7172 12.8369V7.83644C24.7172 6.68028 23.7452 5.73967 22.5505 5.73967H21.8161L21.9789 5.19236C22.244 4.30149 21.7134 3.37288 20.7928 3.11634L15.876 1.74662C15.646 1.68257 15.4059 1.81105 15.3397 2.03362C15.2735 2.25619 15.4063 2.48851 15.6363 2.55262L18.7273 3.41372C18.3449 4.13459 18.3309 4.99442 18.7177 5.73967H9.65885V2.43725C9.65885 2.20566 9.46483 2.01789 9.22552 2.01789C8.98621 2.01789 8.79219 2.20566 8.79219 2.43725V5.73967H7.32969V2.43725C7.32969 2.20566 7.13566 2.01789 6.89635 2.01789C6.65705 2.01789 6.46302 2.20566 6.46302 2.43725V5.73967H4.56719V2.12273C4.56719 1.66029 4.956 1.28402 5.43385 1.28402H12.7464C13.2242 1.28402 13.613 1.66029 13.613 2.12273V4.42918C13.613 4.66077 13.807 4.84854 14.0464 4.84854C14.2857 4.84854 14.4797 4.66077 14.4797 4.42918V2.12273C14.4797 1.19779 13.7021 0.445312 12.7464 0.445312H5.43385C4.47808 0.445312 3.70052 1.19779 3.70052 2.12273V5.73967H2.34635C1.15165 5.73967 0.179688 6.68028 0.179688 7.83644V23.4574C0.179688 24.6136 1.15165 25.5542 2.34635 25.5542H22.5505C23.7452 25.5542 24.7172 24.6136 24.7172 23.4574V20.3909C24.7172 20.1593 24.5232 19.9715 24.2839 19.9715C24.0445 19.9715 23.8505 20.1593 23.8505 20.3909V23.4574C23.8505 24.1511 23.2673 24.7155 22.5505 24.7155H2.34635C1.62957 24.7155 1.04635 24.1511 1.04635 23.4574V7.83644C1.04635 7.14278 1.62957 6.57838 2.34635 6.57838H22.5505C23.2673 6.57838 23.8505 7.14278 23.8505 7.83644V12.8163H20.2755C19.3197 12.8163 18.5422 13.5688 18.5422 14.4937V16.8002C18.5422 17.7251 19.3197 18.4776 20.2755 18.4776H24.4475C25.3991 18.4776 26.1797 17.7276 26.1797 16.8002V14.4937C26.1797 13.6579 25.5447 12.9631 24.7172 12.8369ZM19.5838 3.65238L20.553 3.92239C21.0134 4.05066 21.2785 4.51489 21.1461 4.96035L20.9143 5.73967H19.756C19.2088 5.15068 19.1581 4.29415 19.5838 3.65238ZM25.313 16.8002C25.313 17.2626 24.9242 17.6389 24.4464 17.6389H20.2755C19.7977 17.6389 19.4089 17.2626 19.4089 16.8002V14.4937C19.4089 14.0313 19.7977 13.655 20.2755 13.655H24.4464C24.9242 13.655 25.313 14.0313 25.313 14.4937V16.8002ZM21.9005 15.6469C21.9005 15.8785 21.7065 16.0663 21.4672 16.0663H20.8172C20.5779 16.0663 20.3839 15.8785 20.3839 15.6469C20.3839 15.4153 20.5779 15.2276 20.8172 15.2276H21.4672C21.7065 15.2276 21.9005 15.4153 21.9005 15.6469Z" fill="#C5C5C6"/>
</g>
<defs>
<clipPath id="clip0">
<rect width="26" height="25.1613" fill="white" transform="translate(0.179688 0.419922)"/>
</clipPath>
</defs>
</svg>
