<svg width="44" height="43" viewBox="0 0 44 43" fill="none" xmlns="http://www.w3.org/2000/svg">
<g clip-path="url(#clip0)">
<path d="M36.6486 18.909L38.3185 17.8633C39.9068 16.8676 40.4043 14.7827 39.4366 13.1771L33.2872 2.97788C32.3042 1.35174 30.189 0.830447 28.5629 1.81348C28.5399 1.82743 28.517 1.84159 28.4943 1.85604L9.00278 14.3034C7.4433 15.3016 6.95351 17.3549 7.89442 18.9496L9.14151 21.0581L11.2534 24.7022L32.584 20.9233L36.6486 18.909Z" fill="#F66C4C"/>
<path d="M6.97828 21.5771L33.6416 16.8534C35.4607 16.5311 37.1966 17.7445 37.5189 19.5636L40.0197 33.6795C40.342 35.4985 39.1286 37.2344 37.3095 37.5567L10.6461 42.2804C8.82706 42.6027 7.09117 41.3893 6.7689 39.5703L4.26809 25.4543C3.94582 23.6353 5.15921 21.8994 6.97828 21.5771Z" fill="#FBB540"/>
</g>
<defs>
<clipPath id="clip0">
<rect width="37" height="37" fill="white" transform="translate(0.902344 6.4545) rotate(-10.0464)"/>
</clipPath>
</defs>
</svg>
