<svg width="42" height="42" viewBox="0 0 42 42" fill="none" xmlns="http://www.w3.org/2000/svg">
<path d="M10.976 7.65316L5.42962 12.9903L4.98258 17.7244L8.25017 28.5044L15.7568 34.1264L17.985 39.0441L21.8264 33.2723L24.6377 31.8281L33.4116 27.8852L35.6392 21.4163L34.3497 12.4336L29.3804 6.15494L23.5357 4.80092L10.976 7.65316Z" fill="#7D3DAF" stroke="black"/>
<path d="M34.2518 8.27953L34.2321 8.24331C32.6298 5.2805 28.2207 2.79736 24.796 2.92967L24.7575 2.9316C19.2551 3.28829 13.9385 4.66421 8.95495 7.02121L8.91925 7.03848C5.86139 8.58383 3.21036 12.8941 3.24546 16.2625L3.24687 16.3034C3.42289 20.9746 4.58308 25.4577 6.69515 29.6278L6.71378 29.6643C8.24867 32.5004 12.3545 34.8955 15.706 34.9791L16.6205 38.5126C16.9514 39.7915 18.6725 40.0163 19.32 38.8641L21.937 34.2161C22.7247 34.0586 23.5078 33.8818 24.2847 33.6807C26.9242 32.9976 29.5002 32.0647 31.992 30.8862L32.0266 30.8692C35.0856 29.3236 37.7366 25.0133 37.7004 21.6452L37.7001 21.604C37.524 16.9327 36.3638 12.4497 34.2518 8.27953ZM34.7011 21.6961C34.7128 23.8965 32.6968 27.1576 30.6899 28.183C28.0391 29.4347 25.2877 30.3886 22.4602 31.0373C22.404 31.0503 22.356 31.0858 22.3274 31.1359C22.0348 31.6479 20.4078 34.4957 20.4078 34.4957L18.3659 38.0688C18.2175 38.3333 17.8231 38.2816 17.7473 37.989L16.2325 32.1355C16.2075 32.0388 16.1171 31.9745 16.0173 31.9805C16.0168 31.9805 16.0162 31.9805 16.0156 31.9805C13.7632 32.0574 10.4195 30.1833 9.36124 28.2537C7.45592 24.4834 6.40763 20.4327 6.24477 16.2115C6.23413 14.0108 8.24899 10.75 10.2559 9.72448C14.8854 7.53828 19.8224 6.26062 24.9301 5.92686C27.1836 5.84977 30.5274 7.72382 31.5845 9.65366C33.4909 13.4239 34.5392 17.4745 34.7011 21.6961Z" fill="white"/>
<path d="M27.3632 26.4779C27.0101 26.4633 26.6808 26.4772 26.3599 26.432C23.0349 25.9633 19.8556 25.0713 17.0291 23.1742C15.4217 22.0953 14.0381 20.7658 12.7814 19.3051C12.1854 18.6124 11.6428 17.8727 11.0953 17.1401C10.596 16.4719 10.8467 15.5832 11.1754 14.8974C11.4839 14.2537 11.9521 13.7011 12.4953 13.2425C12.9194 12.8845 13.4317 12.895 13.8916 13.2139C14.8858 13.9034 15.8294 14.6544 16.6643 15.5359C17.1777 16.078 17.2819 16.8762 16.7596 17.4708C16.6326 17.6153 16.5241 17.7744 16.4112 17.9298C16.3121 18.0659 16.2208 18.2012 16.1708 18.3638C16.0796 18.6613 16.1504 18.9659 16.3241 19.2186C17.6614 21.1641 19.4109 22.4933 21.8054 22.8333C22.1886 22.8877 22.5794 22.9654 22.9658 22.8158C23.6131 22.5651 23.6397 21.7771 24.0084 21.2736C24.3688 20.7815 24.9516 20.6254 25.5247 20.8096C26.0979 20.9938 26.6619 21.2049 27.224 21.4202C27.7757 21.6316 28.3236 21.8363 28.8512 22.1035C29.3585 22.3604 29.6243 22.801 29.5195 23.355C29.3276 24.3696 28.9025 25.2823 28.1328 25.9939C27.9154 26.1947 27.6253 26.3166 27.3632 26.4779C27.0101 26.4632 27.6253 26.3166 27.3632 26.4779Z" fill="white"/>
<path d="M18.3276 10.6298C22.2836 9.72337 26.184 11.495 27.8801 15.199C28.1691 15.8301 28.3861 16.4957 28.6123 17.1536C28.7074 17.4304 28.6169 17.7401 28.3131 17.8227C27.9992 17.9079 27.7894 17.6812 27.6959 17.4041C27.5108 16.8557 27.3375 16.3016 27.117 15.7673C25.9533 12.9468 22.9939 11.13 19.9473 11.3643C19.4889 11.3995 19.0351 11.495 18.5791 11.5633C18.2909 11.6065 17.9189 11.6846 17.7665 11.3519C17.6387 11.0729 17.8252 10.7762 18.0998 10.6892C18.1745 10.6654 18.2515 10.6491 18.3276 10.6298C22.2836 9.72337 18.2515 10.6491 18.3276 10.6298Z" fill="white"/>
<path d="M26.2987 16.8224C26.305 16.8731 26.3314 16.9893 26.3308 17.1054C26.3286 17.5267 25.7435 17.7308 25.5029 17.3684C25.4315 17.2609 25.3906 17.1281 25.3575 17.001C25.1408 16.1695 24.745 15.3853 24.1382 14.7701C23.5145 14.1378 22.6939 13.683 21.8232 13.5046C21.2968 13.3967 20.7547 13.3853 20.2207 13.4331C19.9872 13.454 19.7552 13.49 19.5222 13.5169C19.2399 13.5496 19.0494 13.4136 18.9928 13.1417C18.9397 12.8869 19.0768 12.6582 19.3551 12.6027C20.2697 12.4207 21.1906 12.3902 22.1018 12.6071C23.9546 13.0483 25.2379 14.1696 25.9803 15.9181C26.0139 15.9973 26.0548 16.0738 26.0825 16.1549C26.1507 16.3552 26.2133 16.5572 26.2987 16.8224C26.305 16.8731 26.2133 16.5572 26.2987 16.8224Z" fill="white"/>
<path d="M23.8311 17.3595C23.504 17.4505 23.2811 17.3141 23.1693 17.0216C23.0913 16.8177 23.0176 16.6096 22.9146 16.4182C22.7117 16.0413 22.4013 15.7236 21.9988 15.5646C21.8089 15.4895 21.6058 15.4515 21.4019 15.4459C21.1428 15.4387 20.8975 15.5226 20.6417 15.5259C20.364 15.5295 20.1648 15.3554 20.1425 15.0997C20.1221 14.8671 20.2941 14.6369 20.5422 14.5915C22.0934 14.3074 23.3854 14.813 24.0046 16.5654C24.0483 16.689 24.0958 16.8194 24.0991 16.9476C24.1046 17.1672 23.9781 17.3107 23.8311 17.3595C23.504 17.4505 23.9781 17.3107 23.8311 17.3595Z" fill="white"/>
</svg>
