<svg width="30" height="30" viewBox="0 0 30 30" fill="none" xmlns="http://www.w3.org/2000/svg">
<g clip-path="url(#clip0)">
<path d="M27.1865 6.09375H0.963242H0.936523C0.936523 5.05828 1.77605 4.21875 2.81152 4.21875H26.249C26.767 4.21875 27.1865 4.63828 27.1865 5.15625V6.09375Z" fill="#D8923E"/>
<path d="M27.1865 6.09375V7.96875H2.81152C1.77605 7.96875 0.936523 7.12922 0.936523 6.09375H27.1865Z" fill="#BC7F35"/>
<path d="M28.124 8.90625V24.8437C28.124 25.3617 27.7045 25.7812 27.1865 25.7812H1.87402C1.35605 25.7812 0.936523 25.3617 0.936523 24.8437V6.09375C0.936523 7.12922 1.77605 7.96875 2.81152 7.96875H27.1865C27.7045 7.96875 28.124 8.38828 28.124 8.90625Z" fill="#F5CF88"/>
<path d="M0.936523 15.4688H20.1553V18.2812H0.936523V15.4688Z" fill="#8F6128"/>
<path d="M0.936523 15.4688H20.1553V16.875H0.936523V15.4688Z" fill="#BC7F35"/>
<path d="M28.124 23.1656C27.5301 23.3423 26.9006 23.4375 26.249 23.4375C22.6246 23.4375 19.6865 20.4994 19.6865 16.875C19.6865 13.2506 22.6246 10.3125 26.249 10.3125C26.9006 10.3125 27.5301 10.4077 28.124 10.5844" fill="#D8923E"/>
<path d="M28.124 19.2188H24.8428C23.5486 19.2188 22.499 18.1692 22.499 16.875C22.499 15.5808 23.5486 14.5312 24.8428 14.5312H28.124C28.642 14.5312 29.0615 14.9508 29.0615 15.4688V18.2812C29.0615 18.7992 28.642 19.2188 28.124 19.2188Z" fill="#8F6128"/>
<path d="M24.8428 17.8121C24.3253 17.8121 23.9053 17.3916 23.9053 16.8746C23.9053 16.3575 24.3253 15.9371 24.8428 15.9371C25.3598 15.9371 25.7798 16.3575 25.7798 16.8746C25.7798 17.3916 25.3598 17.8121 24.8428 17.8121Z" fill="#F5CF88"/>
</g>
<defs>
<clipPath id="clip0">
<rect width="30" height="30" fill="white" transform="translate(-0.000976562)"/>
</clipPath>
</defs>
</svg>
