<svg width="20" height="21" viewBox="0 0 20 21" fill="none" xmlns="http://www.w3.org/2000/svg">
<path fill-rule="evenodd" clip-rule="evenodd" d="M6.90768 17.1628C13.1968 17.1628 16.6368 12.0328 16.6368 7.5836C16.6368 7.43776 16.6368 7.29276 16.6268 7.1486C17.2944 6.67367 17.8721 6.08362 18.3327 5.4061C17.7077 5.67843 17.0458 5.85675 16.3685 5.93526C17.0794 5.51819 17.6138 4.85633 17.8719 4.0736C17.1994 4.46604 16.4654 4.74214 15.701 4.89026C15.1805 4.3495 14.4984 3.99255 13.7574 3.87321C13.0164 3.75386 12.2566 3.87859 11.5927 4.2286C10.9323 4.57172 10.4049 5.12486 10.0937 5.80081C9.78241 6.47677 9.70495 7.23709 9.87352 7.96193C8.51883 7.89732 7.19248 7.55108 5.97907 6.9453C4.76565 6.33953 3.6918 5.48751 2.82602 4.4436C2.38923 5.18471 2.25547 6.06586 2.45266 6.90321C2.64985 7.74056 3.16275 8.46944 3.88435 8.93776C3.34105 8.92195 2.80926 8.77743 2.33268 8.51609V8.55943C2.33268 10.1619 3.48018 11.5428 5.07602 11.8594C4.57224 11.9948 4.0444 12.0147 3.53185 11.9178C3.98018 13.2886 5.26352 14.2278 6.72685 14.2553C5.28812 15.3659 3.47062 15.8669 1.66602 15.6503C3.23493 16.6399 5.0527 17.1636 6.90768 17.1603" fill="#4BA0EB"/>
</svg>
