<svg width="20" height="20" viewBox="0 0 20 20" fill="none" xmlns="http://www.w3.org/2000/svg">
<g clip-path="url(#clip0)">
<path d="M17.1 2.87417C15.2 1.0375 12.7 0 10.0375 0C2.39583 0 -2.4025 8.27917 1.41333 14.865L0 20L5.27917 18.6233C7.57917 19.8658 9.46333 19.7558 10.0425 19.8292C18.9033 19.8292 23.3142 9.10917 17.0875 2.90667L17.1 2.87417Z" fill="#ECEFF1"/>
<path d="M10.0562 18.1258L10.0512 18.125H10.0379C7.38622 18.125 5.69206 16.8692 5.52539 16.7967L2.40039 17.6092L3.23789 14.5717L3.03872 14.2592C2.21372 12.9458 1.77539 11.4333 1.77539 9.87583C1.77539 2.54833 10.7296 -1.11584 15.9112 4.06333C21.0804 9.18833 17.4512 18.1258 10.0562 18.1258Z" fill="#4CAF50"/>
<path d="M14.5893 11.9225L14.5818 11.985C14.3309 11.86 13.1093 11.2625 12.8818 11.18C12.3709 10.9908 12.5151 11.15 11.5343 12.2733C11.3884 12.4358 11.2434 12.4483 10.9959 12.3358C10.7459 12.2108 9.94345 11.9483 8.99345 11.0983C8.25345 10.4358 7.75678 9.62332 7.61012 9.37332C7.36595 8.95165 7.87678 8.89165 8.34178 8.01165C8.42512 7.83665 8.38262 7.69915 8.32095 7.57498C8.25845 7.44998 7.76095 6.22498 7.55262 5.73665C7.35262 5.24998 7.14678 5.31165 6.99261 5.31165C6.51261 5.26998 6.16178 5.27665 5.85261 5.59832C4.50761 7.07665 4.84678 8.60165 5.99761 10.2233C8.25928 13.1833 9.46428 13.7283 11.6676 14.485C12.2626 14.6742 12.8051 14.6475 13.2343 14.5858C13.7126 14.51 14.7068 13.985 14.9143 13.3975C15.1268 12.81 15.1268 12.3225 15.0643 12.21C15.0026 12.0975 14.8393 12.035 14.5893 11.9225Z" fill="#FAFAFA"/>
</g>
<defs>
<clipPath id="clip0">
<rect width="20" height="20" fill="white"/>
</clipPath>
</defs>
</svg>
