<svg width="45" height="63" viewBox="0 0 45 63" fill="none" xmlns="http://www.w3.org/2000/svg">
<path d="M44.612 22.4456C44.612 34.7621 29.1346 62.2265 22.306 62.2265C13.4176 62.2265 0 34.7621 0 22.4456C0 10.129 9.98673 0.144531 22.306 0.144531C34.6252 0.144531 44.612 10.129 44.612 22.4456Z" fill="#23222C"/>
<path d="M24.2502 34.8399C21.6675 35.5895 19.0795 34.8473 16.6231 33.2659C12.3079 30.4872 11.3659 25.1117 13.7704 20.6874C16.3055 16.0231 21.9492 14.7181 26.5122 17.4482C27.4343 17.9987 28.2568 18.6994 28.9453 19.521C29.9282 20.6953 31.4766 21.2395 32.9667 20.8703L33.0935 20.8389C34.765 20.4254 35.5908 18.5564 34.779 17.0449C33.6106 14.8697 31.8206 12.987 29.4815 11.686C23.2637 8.2304 15.306 10.2782 11.5456 16.2967C7.58122 22.6416 9.61473 30.9645 16.0259 34.801C18.6197 36.3582 21.669 36.9923 24.6731 36.5991C24.7947 36.5834 24.9117 36.543 25.0169 36.4804C25.1221 36.4178 25.2132 36.3344 25.2846 36.2353C25.3559 36.1361 25.4059 36.0235 25.4316 35.9043C25.4572 35.7851 25.4579 35.662 25.4336 35.5425C25.3243 35.0069 24.7776 34.6869 24.2502 34.8399Z" fill="url(#paint0_linear)"/>
<path style="mix-blend-mode:multiply" opacity="0.6" d="M24.2502 34.8399C21.6675 35.5895 19.0795 34.8473 16.6231 33.2659C12.3079 30.4872 11.3659 25.1117 13.7704 20.6874C16.3055 16.0231 21.9492 14.7181 26.5122 17.4482C27.4343 17.9987 28.2568 18.6994 28.9453 19.521C29.9282 20.6953 31.4766 21.2395 32.9667 20.8703L33.0935 20.8389C34.765 20.4254 35.5908 18.5564 34.779 17.0449C33.6106 14.8697 31.8206 12.987 29.4815 11.686C23.2637 8.2304 15.306 10.2782 11.5456 16.2967C7.58122 22.6416 9.61473 30.9645 16.0259 34.801C18.6197 36.3582 21.669 36.9923 24.6731 36.5991C24.7947 36.5834 24.9117 36.543 25.0169 36.4804C25.1221 36.4178 25.2132 36.3344 25.2846 36.2353C25.3559 36.1361 25.4059 36.0235 25.4316 35.9043C25.4572 35.7851 25.4579 35.662 25.4336 35.5425C25.3243 35.0069 24.7776 34.6869 24.2502 34.8399Z" fill="url(#paint1_linear)"/>
<path d="M13.2928 20.7484C16.0721 16.2242 21.9492 14.7181 26.5122 17.4482C27.4343 17.9987 28.2568 18.6994 28.9453 19.521C29.9282 20.6953 31.4766 21.2395 32.9667 20.8703L33.0935 20.8389C34.765 20.4254 35.5908 18.5564 34.779 17.0449C33.6106 14.8697 31.8206 12.987 29.4815 11.686C23.2637 8.2304 15.306 10.2782 11.5456 16.2967C7.58122 22.6416 9.61473 30.9645 16.0259 34.801C17.7548 35.8377 19.6976 36.4711 21.7083 36.6535C10.4143 34.6295 11.139 24.2544 13.2928 20.7484Z" fill="url(#paint2_linear)"/>
<path style="mix-blend-mode:multiply" opacity="0.6" d="M13.2928 20.7484C16.0721 16.2242 21.9492 14.7181 26.5122 17.4482C27.4343 17.9987 28.2568 18.6994 28.9453 19.521C29.9282 20.6953 31.4766 21.2395 32.9667 20.8703L33.0935 20.8389C34.765 20.4254 35.5908 18.5564 34.779 17.0449C33.6106 14.8697 31.8206 12.987 29.4815 11.686C23.2637 8.2304 15.306 10.2782 11.5456 16.2967C7.58122 22.6416 9.61473 30.9645 16.0259 34.801C17.7548 35.8377 19.6976 36.4711 21.7083 36.6535C10.4143 34.6295 11.139 24.2544 13.2928 20.7484Z" fill="url(#paint3_linear)"/>
<path d="M19.5794 14.2501C25.1693 14.0697 27.8134 17.2692 29.1866 19.3643C30.0254 20.6444 31.4743 21.2405 32.9647 20.8713L33.0914 20.8399C34.7628 20.4264 35.5888 18.5573 34.7769 17.0459C33.6085 14.8707 31.8184 12.988 29.4793 11.6869C23.2619 8.23138 15.3038 10.2792 11.5439 16.2976C10.1309 18.5512 9.42836 21.1734 9.52665 23.8272C9.41984 18.3043 13.9878 14.4306 19.5794 14.2501Z" fill="url(#paint4_linear)"/>
<path d="M28.1228 34.9339C28.1226 35.1248 28.0655 35.3113 27.9588 35.4699C27.852 35.6285 27.7003 35.752 27.523 35.8249C27.3456 35.8978 27.1505 35.9168 26.9623 35.8794C26.7741 35.8421 26.6012 35.7501 26.4656 35.6151C26.3299 35.48 26.2376 35.3081 26.2002 35.1209C26.1628 34.9337 26.1821 34.7397 26.2556 34.5634C26.3291 34.3871 26.4535 34.2364 26.6131 34.1304C26.7727 34.0244 26.9603 33.9678 27.1522 33.9678C27.2798 33.9678 27.406 33.9928 27.5238 34.0414C27.6416 34.09 27.7487 34.1612 27.8388 34.2509C27.9289 34.3406 28.0004 34.4471 28.0491 34.5643C28.0979 34.6815 28.1229 34.8071 28.1228 34.9339Z" fill="url(#paint5_linear)"/>
<path d="M30.1379 33.7334C30.1378 33.873 30.0961 34.0094 30.018 34.1253C29.94 34.2413 29.8291 34.3317 29.6995 34.385C29.5698 34.4383 29.4271 34.4522 29.2895 34.4249C29.1519 34.3976 29.0255 34.3304 28.9263 34.2316C28.8272 34.1329 28.7596 34.0072 28.7323 33.8703C28.705 33.7334 28.7191 33.5916 28.7729 33.4627C28.8266 33.3338 28.9176 33.2236 29.0343 33.1461C29.151 33.0687 29.2882 33.0273 29.4285 33.0273C29.5217 33.0274 29.614 33.0457 29.7001 33.0812C29.7861 33.1167 29.8644 33.1687 29.9302 33.2343C29.9961 33.2999 30.0483 33.3777 30.084 33.4633C30.1196 33.549 30.1379 33.6408 30.1379 33.7334Z" fill="url(#paint6_linear)"/>
<path d="M31.0259 33.0278C31.2785 33.0278 31.4834 32.8239 31.4834 32.5725C31.4834 32.321 31.2785 32.1172 31.0259 32.1172C30.7732 32.1172 30.5684 32.321 30.5684 32.5725C30.5684 32.8239 30.7732 33.0278 31.0259 33.0278Z" fill="url(#paint7_linear)"/>
<defs>
<linearGradient id="paint0_linear" x1="9.5174" y1="23.3599" x2="35.0941" y2="23.3599" gradientUnits="userSpaceOnUse">
<stop stop-color="#67150A"/>
<stop offset="1" stop-color="#EC6759"/>
</linearGradient>
<linearGradient id="paint1_linear" x1="22.2794" y1="19.4277" x2="22.5368" y2="33.6206" gradientUnits="userSpaceOnUse">
<stop offset="0.11" stop-color="#666666"/>
<stop offset="0.29" stop-color="#7C7C7C" stop-opacity="0.85"/>
<stop offset="0.63" stop-color="#B7B7B7" stop-opacity="0.47"/>
<stop offset="1" stop-color="white" stop-opacity="0"/>
</linearGradient>
<linearGradient id="paint2_linear" x1="23.5242" y1="14.5944" x2="20.0314" y2="30.9893" gradientUnits="userSpaceOnUse">
<stop stop-color="#67150A"/>
<stop offset="1" stop-color="#C01818"/>
</linearGradient>
<linearGradient id="paint3_linear" x1="39672.8" y1="28732.5" x2="18828.7" y2="37685.3" gradientUnits="userSpaceOnUse">
<stop offset="0.11" stop-color="#666666"/>
<stop offset="0.29" stop-color="#7C7C7C" stop-opacity="0.85"/>
<stop offset="0.63" stop-color="#B7B7B7" stop-opacity="0.47"/>
<stop offset="1" stop-color="white" stop-opacity="0"/>
</linearGradient>
<linearGradient id="paint4_linear" x1="9.51766" y1="16.9181" x2="35.0923" y2="16.9181" gradientUnits="userSpaceOnUse">
<stop stop-color="#7F1C19"/>
<stop offset="1" stop-color="#ED1C24"/>
</linearGradient>
<linearGradient id="paint5_linear" x1="27.3602" y1="33.9931" x2="26.8743" y2="36.2166" gradientUnits="userSpaceOnUse">
<stop stop-color="#E94B33"/>
<stop offset="1" stop-color="#941914"/>
</linearGradient>
<linearGradient id="paint6_linear" x1="2257.78" y1="2693.57" x2="2241.2" y2="2822.76" gradientUnits="userSpaceOnUse">
<stop stop-color="#E94B33"/>
<stop offset="1" stop-color="#941914"/>
</linearGradient>
<linearGradient id="paint7_linear" x1="1217.92" y1="1251.94" x2="1207.21" y2="1307.07" gradientUnits="userSpaceOnUse">
<stop stop-color="#E94B33"/>
<stop offset="1" stop-color="#941914"/>
</linearGradient>
</defs>
</svg>
