<svg width="17" height="17" viewBox="0 0 17 17" fill="none" xmlns="http://www.w3.org/2000/svg">
<g clip-path="url(#clip0)">
<path d="M12.6602 10.5767C12.2303 10.5767 11.8829 10.9242 11.8829 11.354V13.7953C11.8829 14.2244 11.5347 14.5726 11.1057 14.5726H2.55586C2.12681 14.5726 1.77863 14.2244 1.77863 13.7953V3.69108C1.77863 3.26203 2.12684 2.91385 2.55586 2.91385H7.07169C7.50149 2.91385 7.84893 2.56642 7.84893 2.13661C7.84893 1.70681 7.50149 1.35938 7.07169 1.35938H2.55586C1.27029 1.35931 0.224121 2.40551 0.224121 3.69108V13.7953C0.224121 15.0809 1.27029 16.1271 2.55586 16.1271H11.1056C12.3912 16.1271 13.4374 15.0817 13.4374 13.7953V11.354C13.4374 10.9242 13.09 10.5767 12.6602 10.5767Z" fill="#807F85"/>
<path d="M15.355 1.26054C14.7907 0.696264 14.0539 0.411769 13.3116 0.396238C12.5304 0.379145 11.7446 0.662046 11.1539 1.25354L5.89193 6.51554C5.12401 7.28659 4.70117 8.30944 4.70117 9.39602V11.1371C4.70117 11.5669 5.0486 11.9143 5.47841 11.9143H7.21944C8.30605 11.9143 9.32891 11.4915 10.1007 10.7227L15.3557 5.46774C16.5138 4.30892 16.5138 2.4202 15.355 1.26054ZM9.00251 9.62301C8.52605 10.0979 7.89181 10.3598 7.2195 10.3598H6.25568V9.39605C6.25568 8.72372 6.51761 8.08948 6.99173 7.6138L10.4606 4.14492L12.4706 6.15489L9.00251 9.62301ZM14.2559 4.36954L13.5696 5.05588L11.5597 3.04591L12.246 2.35961C12.8009 1.80465 13.7025 1.80621 14.2559 2.35961C14.8093 2.91376 14.8093 3.81537 14.2559 4.36954Z" fill="#807F85"/>
</g>
<defs>
<clipPath id="clip0">
<rect width="16" height="16" fill="white" transform="translate(0.224121 0.26123)"/>
</clipPath>
</defs>
</svg>
