<svg width="24" height="25" viewBox="0 0 24 25" fill="none" xmlns="http://www.w3.org/2000/svg">
<path opacity="0.5" d="M23.8983 0.579445C23.7369 0.272602 23.41 0.0791016 23.0525 0.0791016H0.947326C0.589878 0.0791016 0.263028 0.272602 0.10165 0.579445C-0.0593869 0.886289 -0.0271795 1.25449 0.184727 1.53124L8.84209 12.8344L9.05651 20.4704C9.05651 20.9738 9.57072 22.2563 10.094 22.2563L14.2105 24.0791C14.7338 24.0791 15.1579 23.6711 15.1579 23.1677V12.8344L23.8152 1.53124C24.0274 1.25449 24.0593 0.886289 23.8983 0.579445ZM13.4478 11.9944C13.3278 12.1508 13.2631 12.3401 13.2631 12.5348V22.2563L10.7368 20.4704V12.5348C10.7368 12.3401 10.672 12.1508 10.5521 11.9943L2.82213 1.90188H21.178L13.4478 11.9944Z" fill="white"/>
</svg>
