<svg width="15" height="15" viewBox="0 0 15 15" fill="none" xmlns="http://www.w3.org/2000/svg">
<g clip-path="url(#clip0)">
<path d="M7.20088 13.7292H1.9683C1.64736 13.7292 1.38691 13.4502 1.38691 13.1063V1.89369C1.38691 1.54983 1.64739 1.27078 1.9683 1.27078H7.20088C7.52239 1.27078 7.78226 0.992344 7.78226 0.647871C7.78226 0.303398 7.52239 0.0249023 7.20088 0.0249023H1.9683C1.00667 0.0249023 0.224121 0.863379 0.224121 1.89369V13.1063C0.224121 14.1366 1.00667 14.9751 1.9683 14.9751H7.20088C7.52239 14.9751 7.78226 14.6966 7.78226 14.3522C7.78226 14.0077 7.52239 13.7292 7.20088 13.7292Z" fill="#807F85"/>
<path d="M14.0508 7.05653L10.5159 3.31898C10.288 3.07729 9.91942 3.08042 9.69384 3.32522C9.46825 3.57003 9.47058 3.96434 9.69966 4.20603L12.2258 6.87712H5.45663C5.13512 6.87712 4.87524 7.15556 4.87524 7.50003C4.87524 7.8445 5.13512 8.12297 5.45663 8.12297H12.2258L9.69966 10.7941C9.4706 11.0358 9.46885 11.4301 9.69384 11.6749C9.80778 11.7982 9.95779 11.8605 10.1078 11.8605C10.2555 11.8605 10.4031 11.8007 10.5159 11.6811L14.0508 7.94352C14.1613 7.82642 14.2241 7.66693 14.2241 7.5C14.2241 7.33312 14.1619 7.17428 14.0508 7.05653Z" fill="#807F85"/>
</g>
<defs>
<clipPath id="clip0">
<rect width="14" height="15" fill="white" transform="translate(0.224121)"/>
</clipPath>
</defs>
</svg>
