<svg width="25" height="25" viewBox="0 0 25 25" fill="none" xmlns="http://www.w3.org/2000/svg">
<path d="M24.6787 23.4023L17.7069 16.4369C19.0292 14.8058 19.8252 12.7323 19.8252 10.4747C19.8252 5.24123 15.5635 0.983398 10.3252 0.983398C5.08689 0.983398 0.825195 5.24123 0.825195 10.4747C0.825195 15.7082 5.08694 19.966 10.3252 19.966C12.5849 19.966 14.6603 19.1707 16.2929 17.8496L23.2647 24.8151C23.46 25.0101 23.7765 25.0101 23.9719 24.8151L24.6788 24.1088C24.874 23.9137 24.874 23.5973 24.6787 23.4023ZM10.3252 17.9678C6.18949 17.9678 2.82522 14.6067 2.82522 10.4747C2.82522 6.34277 6.18949 2.98158 10.3252 2.98158C14.461 2.98158 17.8253 6.34277 17.8253 10.4747C17.8253 14.6067 14.461 17.9678 10.3252 17.9678Z" fill="#99989D"/>
</svg>
