<svg width="17" height="17" viewBox="0 0 17 17" fill="none" xmlns="http://www.w3.org/2000/svg">
<g clip-path="url(#clip0)">
<path d="M15.4246 0.960938H2.23706C1.46165 0.960938 0.830811 1.59178 0.830811 2.36719V5.17969V15.5547C0.830811 16.3301 1.46165 16.9609 2.23706 16.9609H15.4246C16.2 16.9609 16.8308 16.3301 16.8308 15.5547V5.17969V2.36719C16.8308 1.59178 16.2 0.960938 15.4246 0.960938ZM1.76831 2.36719C1.76831 2.10872 1.97859 1.89844 2.23706 1.89844H15.4246C15.683 1.89844 15.8933 2.10872 15.8933 2.36719V4.71094H1.76831V2.36719ZM15.8933 15.5547C15.8933 15.8132 15.683 16.0234 15.4246 16.0234H2.23706C1.97859 16.0234 1.76831 15.8132 1.76831 15.5547V5.64844H15.8933V15.5547Z" fill="#807F85"/>
<path d="M3.20581 3.77344C3.46469 3.77344 3.67456 3.56357 3.67456 3.30469C3.67456 3.0458 3.46469 2.83594 3.20581 2.83594C2.94693 2.83594 2.73706 3.0458 2.73706 3.30469C2.73706 3.56357 2.94693 3.77344 3.20581 3.77344Z" fill="#807F85"/>
<path d="M5.08081 3.77344C5.33969 3.77344 5.54956 3.56357 5.54956 3.30469C5.54956 3.0458 5.33969 2.83594 5.08081 2.83594C4.82193 2.83594 4.61206 3.0458 4.61206 3.30469C4.61206 3.56357 4.82193 3.77344 5.08081 3.77344Z" fill="#807F85"/>
<path d="M6.95581 3.77344C7.21469 3.77344 7.42456 3.56357 7.42456 3.30469C7.42456 3.0458 7.21469 2.83594 6.95581 2.83594C6.69693 2.83594 6.48706 3.0458 6.48706 3.30469C6.48706 3.56357 6.69693 3.77344 6.95581 3.77344Z" fill="#807F85"/>
<path d="M3.20581 12.5859H6.95581C7.21469 12.5859 7.42456 12.3761 7.42456 12.1172V11.4922C7.42456 10.6677 6.99628 9.94187 6.35087 9.52397C6.62947 9.21837 6.79956 8.81228 6.79956 8.36719C6.79956 7.41947 6.02853 6.64844 5.08081 6.64844C4.13309 6.64844 3.36206 7.41947 3.36206 8.36719C3.36206 8.81228 3.53215 9.21837 3.81075 9.52397C3.16534 9.94187 2.73706 10.6677 2.73706 11.4922V12.1172C2.73706 12.3761 2.94694 12.5859 3.20581 12.5859ZM4.29956 8.36719C4.29956 7.93641 4.65003 7.58594 5.08081 7.58594C5.51159 7.58594 5.86206 7.93641 5.86206 8.36719C5.86206 8.79797 5.51159 9.14844 5.08081 9.14844C4.65003 9.14844 4.29956 8.79797 4.29956 8.36719ZM3.67456 11.4922C3.67456 10.7168 4.3054 10.0859 5.08081 10.0859C5.85622 10.0859 6.48706 10.7168 6.48706 11.4922V11.6484H3.67456V11.4922Z" fill="#807F85"/>
<path d="M8.83081 7.58594H14.4558C14.7147 7.58594 14.9246 7.37606 14.9246 7.11719C14.9246 6.85831 14.7147 6.64844 14.4558 6.64844H8.83081C8.57194 6.64844 8.36206 6.85831 8.36206 7.11719C8.36206 7.37606 8.57194 7.58594 8.83081 7.58594Z" fill="#807F85"/>
<path d="M8.83081 9.46094H14.4558C14.7147 9.46094 14.9246 9.25106 14.9246 8.99219C14.9246 8.73331 14.7147 8.52344 14.4558 8.52344H8.83081C8.57194 8.52344 8.36206 8.73331 8.36206 8.99219C8.36206 9.25106 8.57194 9.46094 8.83081 9.46094Z" fill="#807F85"/>
<path d="M8.83081 11.3359H14.4558C14.7147 11.3359 14.9246 11.1261 14.9246 10.8672C14.9246 10.6083 14.7147 10.3984 14.4558 10.3984H8.83081C8.57194 10.3984 8.36206 10.6083 8.36206 10.8672C8.36206 11.1261 8.57194 11.3359 8.83081 11.3359Z" fill="#807F85"/>
<path d="M14.4558 12.2734H12.5808C12.3219 12.2734 12.1121 12.4833 12.1121 12.7422V14.6172C12.1121 14.8761 12.3219 15.0859 12.5808 15.0859H14.4558C14.7147 15.0859 14.9246 14.8761 14.9246 14.6172V12.7422C14.9246 12.4833 14.7147 12.2734 14.4558 12.2734ZM13.9871 14.1484H13.0496V13.2109H13.9871V14.1484Z" fill="#807F85"/>
<path d="M8.83081 15.0859H10.7058C10.9647 15.0859 11.1746 14.8761 11.1746 14.6172V12.7422C11.1746 12.4833 10.9647 12.2734 10.7058 12.2734H8.83081C8.57194 12.2734 8.36206 12.4833 8.36206 12.7422V14.6172C8.36206 14.8761 8.57194 15.0859 8.83081 15.0859ZM9.29956 13.2109H10.2371V14.1484H9.29956V13.2109Z" fill="#807F85"/>
<path d="M3.20581 14.4609H6.95581C7.21469 14.4609 7.42456 14.2511 7.42456 13.9922C7.42456 13.7333 7.21469 13.5234 6.95581 13.5234H3.20581C2.94694 13.5234 2.73706 13.7333 2.73706 13.9922C2.73706 14.2511 2.94694 14.4609 3.20581 14.4609Z" fill="#807F85"/>
</g>
<defs>
<clipPath id="clip0">
<rect width="16" height="16" fill="white" transform="translate(0.830811 0.960938)"/>
</clipPath>
</defs>
</svg>
