<svg width="20" height="20" viewBox="0 0 20 20" fill="none" xmlns="http://www.w3.org/2000/svg">
<path d="M18.2422 0H1.75781C0.788555 0 0 0.788555 0 1.75781V5.27344V18.2422C0 19.2114 0.788555 20 1.75781 20H18.2422C19.2114 20 20 19.2114 20 18.2422V5.27344V1.75781C20 0.788555 19.2114 0 18.2422 0ZM1.17188 1.75781C1.17188 1.43473 1.43473 1.17188 1.75781 1.17188H18.2422C18.5653 1.17188 18.8281 1.43473 18.8281 1.75781V4.6875H1.17188V1.75781ZM18.8281 18.2422C18.8281 18.5653 18.5653 18.8281 18.2422 18.8281H1.75781C1.43473 18.8281 1.17188 18.5653 1.17188 18.2422V5.85938H18.8281V18.2422Z" fill="#807F85"/>
<path d="M2.96875 3.51562C3.29235 3.51562 3.55469 3.25329 3.55469 2.92969C3.55469 2.60608 3.29235 2.34375 2.96875 2.34375C2.64515 2.34375 2.38281 2.60608 2.38281 2.92969C2.38281 3.25329 2.64515 3.51562 2.96875 3.51562Z" fill="#807F85"/>
<path d="M5.3125 3.51562C5.6361 3.51562 5.89844 3.25329 5.89844 2.92969C5.89844 2.60608 5.6361 2.34375 5.3125 2.34375C4.9889 2.34375 4.72656 2.60608 4.72656 2.92969C4.72656 3.25329 4.9889 3.51562 5.3125 3.51562Z" fill="#807F85"/>
<path d="M7.65625 3.51562C7.97985 3.51562 8.24219 3.25329 8.24219 2.92969C8.24219 2.60608 7.97985 2.34375 7.65625 2.34375C7.33265 2.34375 7.07031 2.60608 7.07031 2.92969C7.07031 3.25329 7.33265 3.51562 7.65625 3.51562Z" fill="#807F85"/>
<path d="M2.96875 14.5312H7.65625C7.97984 14.5312 8.24219 14.2689 8.24219 13.9453V13.1641C8.24219 12.1335 7.70684 11.2262 6.90008 10.7038C7.24832 10.3218 7.46094 9.81418 7.46094 9.25781C7.46094 8.07316 6.49715 7.10938 5.3125 7.10938C4.12785 7.10938 3.16406 8.07316 3.16406 9.25781C3.16406 9.81418 3.37668 10.3218 3.72492 10.7038C2.91816 11.2262 2.38281 12.1335 2.38281 13.1641V13.9453C2.38281 14.2689 2.64516 14.5312 2.96875 14.5312ZM4.33594 9.25781C4.33594 8.71934 4.77402 8.28125 5.3125 8.28125C5.85098 8.28125 6.28906 8.71934 6.28906 9.25781C6.28906 9.79629 5.85098 10.2344 5.3125 10.2344C4.77402 10.2344 4.33594 9.79629 4.33594 9.25781ZM3.55469 13.1641C3.55469 12.1948 4.34324 11.4062 5.3125 11.4062C6.28176 11.4062 7.07031 12.1948 7.07031 13.1641V13.3594H3.55469V13.1641Z" fill="#807F85"/>
<path d="M10 8.28125H17.0312C17.3548 8.28125 17.6172 8.01891 17.6172 7.69531C17.6172 7.37172 17.3548 7.10938 17.0312 7.10938H10C9.67641 7.10938 9.41406 7.37172 9.41406 7.69531C9.41406 8.01891 9.67641 8.28125 10 8.28125Z" fill="#807F85"/>
<path d="M10 10.625H17.0312C17.3548 10.625 17.6172 10.3627 17.6172 10.0391C17.6172 9.71547 17.3548 9.45312 17.0312 9.45312H10C9.67641 9.45312 9.41406 9.71547 9.41406 10.0391C9.41406 10.3627 9.67641 10.625 10 10.625Z" fill="#807F85"/>
<path d="M10 12.9688H17.0312C17.3548 12.9688 17.6172 12.7064 17.6172 12.3828C17.6172 12.0592 17.3548 11.7969 17.0312 11.7969H10C9.67641 11.7969 9.41406 12.0592 9.41406 12.3828C9.41406 12.7064 9.67641 12.9688 10 12.9688Z" fill="#807F85"/>
<path d="M17.0312 14.1406H14.6875C14.3639 14.1406 14.1016 14.403 14.1016 14.7266V17.0703C14.1016 17.3939 14.3639 17.6562 14.6875 17.6562H17.0312C17.3548 17.6562 17.6172 17.3939 17.6172 17.0703V14.7266C17.6172 14.403 17.3548 14.1406 17.0312 14.1406ZM16.4453 16.4844H15.2734V15.3125H16.4453V16.4844Z" fill="#807F85"/>
<path d="M10 17.6562H12.3438C12.6673 17.6562 12.9297 17.3939 12.9297 17.0703V14.7266C12.9297 14.403 12.6673 14.1406 12.3438 14.1406H10C9.67641 14.1406 9.41406 14.403 9.41406 14.7266V17.0703C9.41406 17.3939 9.67641 17.6562 10 17.6562ZM10.5859 15.3125H11.7578V16.4844H10.5859V15.3125Z" fill="#807F85"/>
<path d="M2.96875 16.875H7.65625C7.97984 16.875 8.24219 16.6127 8.24219 16.2891C8.24219 15.9655 7.97984 15.7031 7.65625 15.7031H2.96875C2.64516 15.7031 2.38281 15.9655 2.38281 16.2891C2.38281 16.6127 2.64516 16.875 2.96875 16.875Z" fill="#807F85"/>
</svg>
