<svg width="20" height="20" viewBox="0 0 20 20" fill="none" xmlns="http://www.w3.org/2000/svg">
<path d="M18.1054 14.6889C18.0516 14.8408 17.9995 15.0039 17.9395 15.1643C17.4428 16.5091 16.6888 17.7032 15.7739 18.7975C15.5973 19.0105 15.3916 19.2034 15.1791 19.3822C14.7592 19.7376 14.276 19.9523 13.717 19.972C13.2972 19.9854 12.8941 19.9092 12.5056 19.7511C12.2242 19.6362 11.9472 19.5078 11.6619 19.4041C10.7358 19.0677 9.8147 19.112 8.90373 19.4719C8.57522 19.602 8.25119 19.7455 7.91651 19.8582C7.52857 19.9882 7.12606 20.0409 6.71626 19.9636C6.3586 19.8968 6.04578 19.7304 5.75539 19.5156C5.39493 19.2488 5.0922 18.9236 4.8091 18.5794C3.4687 16.9447 2.56894 15.0964 2.13447 13.0261C1.94723 12.1359 1.85754 11.2384 1.91247 10.3285C1.97694 9.23758 2.23033 8.19879 2.81336 7.26259C3.54494 6.08588 4.57701 5.31506 5.93479 4.9972C6.75158 4.80491 7.54595 4.88339 8.32463 5.18332C8.73443 5.34028 9.14535 5.49557 9.55683 5.64974C9.93579 5.79213 10.3131 5.79213 10.6926 5.64693C11.1125 5.4866 11.5329 5.32683 11.9545 5.17042C12.3867 5.01289 12.8263 4.88396 13.2848 4.84752C13.971 4.79202 14.6404 4.88115 15.2918 5.09923C16.2151 5.40812 16.9663 5.9547 17.5336 6.75076C17.5488 6.77262 17.5656 6.79673 17.5768 6.8141C16.1461 7.81141 15.3316 9.12883 15.4499 10.9127C15.5693 12.6976 16.5301 13.9051 18.1054 14.6889ZM10.0804 4.62664C10.5026 4.63785 10.9084 4.55656 11.2992 4.40128C13.0813 3.6938 14.013 1.8085 13.985 0.366633C13.9828 0.250589 13.9749 0.134544 13.9699 0C13.7866 0.0274694 13.6195 0.0403633 13.4592 0.0807265C12.158 0.399708 11.1568 1.12569 10.4986 2.30127C10.1135 2.98968 9.89936 3.72071 9.96495 4.51957C9.96943 4.60422 10.0003 4.62552 10.0804 4.62664Z" fill="white"/>
</svg>
