<svg width="27" height="26" viewBox="0 0 27 26" fill="none" xmlns="http://www.w3.org/2000/svg">
<g opacity="0.75" clip-path="url(#clip0)">
<path d="M26.5258 11.3705L23.5295 2.14979C23.4427 1.88314 23.1563 1.7372 22.8895 1.82378L0.901772 8.96893C0.635071 9.05562 0.489127 9.34212 0.575759 9.60887L1.99407 13.9734C1.99366 13.982 1.9928 13.9903 1.9928 13.999V23.6943C1.9928 23.9747 2.22019 24.2021 2.5006 24.2021H25.6202C25.9006 24.2021 26.128 23.9747 26.128 23.6943V13.999C26.128 13.7186 25.9006 13.4912 25.6202 13.4912H21.6431L26.1998 12.0104C26.4665 11.9237 26.6124 11.6372 26.5258 11.3705ZM25.1124 14.5068V23.1865H3.00836V14.5068H5.82121V20.1642C5.82121 20.4446 6.0486 20.672 6.32902 20.672C6.60943 20.672 6.83682 20.4446 6.83682 20.1642V14.5068H18.4372H25.1124ZM18.3568 13.4912H2.90522L1.69857 9.77792L4.37528 8.9081L5.39912 12.0197C5.46945 12.2334 5.66805 12.369 5.88138 12.369C5.93399 12.369 5.98751 12.3607 6.04023 12.3434C6.30662 12.2557 6.45155 11.9687 6.36385 11.7023L5.34118 8.59417L22.7205 2.94659L25.403 11.2014L18.3568 13.4912Z" fill="white"/>
<path d="M21.9496 5.17321C21.8629 4.90656 21.5765 4.76067 21.3097 4.8472L8.06974 9.14971C7.80304 9.23639 7.6571 9.5229 7.74373 9.78965C7.8135 10.0042 8.01251 10.1406 8.2266 10.1406C8.2786 10.1406 8.33152 10.1326 8.38367 10.1157L21.6236 5.81315C21.8903 5.72647 22.0363 5.43996 21.9496 5.17321Z" fill="white"/>
<path d="M19.7176 8.47129L22.2238 7.65692C22.4905 7.57024 22.6364 7.28374 22.5498 7.01699C22.463 6.75029 22.1766 6.60439 21.9098 6.69097L19.4037 7.50534C19.137 7.59203 18.9911 7.87853 19.0777 8.14528C19.1475 8.35988 19.3465 8.49628 19.5606 8.49628C19.6126 8.49628 19.6655 8.4882 19.7176 8.47129Z" fill="white"/>
<path d="M21.8355 10.8035C21.9053 11.0181 22.1043 11.1545 22.3184 11.1545C22.3704 11.1545 22.4233 11.1464 22.4755 11.1295L23.2685 10.8718C23.5352 10.7851 23.6812 10.4986 23.5945 10.2318C23.5078 9.96515 23.2214 9.81921 22.9546 9.90584L22.1616 10.1635C21.8949 10.2502 21.7489 10.5367 21.8355 10.8035Z" fill="white"/>
<path d="M20.3902 10.7398L19.5971 10.9975C19.3304 11.0842 19.1844 11.3707 19.2711 11.6375C19.3408 11.852 19.5399 11.9884 19.754 11.9884C19.8059 11.9884 19.8588 11.9804 19.911 11.9635L20.7041 11.7058C20.9708 11.6191 21.1168 11.3326 21.0301 11.0658C20.9435 10.7991 20.6573 10.6532 20.3902 10.7398Z" fill="white"/>
<path d="M13.3034 9.48785L8.66937 10.9937C8.40267 11.0804 8.25667 11.3669 8.34336 11.6336C8.41313 11.8482 8.61214 11.9846 8.82623 11.9846C8.87818 11.9846 8.93114 11.9766 8.9833 11.9596L13.6173 10.4538C13.884 10.3671 14.0299 10.0806 13.9433 9.81386C13.8565 9.54716 13.5701 9.40127 13.3034 9.48785Z" fill="white"/>
<path d="M6.32812 21.3477C6.04771 21.3477 5.82031 21.5751 5.82031 21.8555V22.0543C5.82031 22.3347 6.04771 22.5621 6.32812 22.5621C6.60853 22.5621 6.83593 22.3347 6.83593 22.0543V21.8555C6.83593 21.5751 6.60853 21.3477 6.32812 21.3477Z" fill="white"/>
<path d="M8.75391 16.3847C8.75391 16.6651 8.9813 16.8925 9.26171 16.8925H23.1832C23.4636 16.8925 23.691 16.6651 23.691 16.3847C23.691 16.1043 23.4636 15.877 23.1832 15.877H9.26171C8.9813 15.877 8.75391 16.1043 8.75391 16.3847Z" fill="white"/>
<path d="M23.184 17.8164H20.5488C20.2684 17.8164 20.041 18.0438 20.041 18.3242C20.041 18.6046 20.2684 18.832 20.5488 18.832H23.184C23.4644 18.832 23.6918 18.6046 23.6918 18.3242C23.6918 18.0438 23.4644 17.8164 23.184 17.8164Z" fill="white"/>
<path d="M23.1835 21.1973H22.3496C22.0692 21.1973 21.8418 21.4247 21.8418 21.7051C21.8418 21.9855 22.0692 22.2129 22.3496 22.2129H23.1835C23.4639 22.2129 23.6913 21.9855 23.6913 21.7051C23.6913 21.4247 23.4639 21.1973 23.1835 21.1973Z" fill="white"/>
<path d="M20.4882 21.1973H19.6543C19.3739 21.1973 19.1465 21.4247 19.1465 21.7051C19.1465 21.9855 19.3739 22.2129 19.6543 22.2129H20.4882C20.7686 22.2129 20.996 21.9855 20.996 21.7051C20.996 21.4247 20.7686 21.1973 20.4882 21.1973Z" fill="white"/>
<path d="M14.1342 17.8164H9.26171C8.9813 17.8164 8.75391 18.0438 8.75391 18.3242C8.75391 18.6046 8.9813 18.832 9.26171 18.832H14.1342C14.4146 18.832 14.642 18.6046 14.642 18.3242C14.642 18.0438 14.4146 17.8164 14.1342 17.8164Z" fill="white"/>
</g>
<defs>
<clipPath id="clip0">
<rect width="26" height="26" fill="white" transform="translate(0.550781)"/>
</clipPath>
</defs>
</svg>
