<svg width="26" height="26" viewBox="0 0 26 26" fill="none" xmlns="http://www.w3.org/2000/svg">
<g opacity="0.75" clip-path="url(#clip0)">
<path d="M5.11257 22.7079H5.06257V22.6579V14.7891C5.06257 14.3866 4.7494 14.0637 4.36698 14.0637C3.98466 14.0637 3.67139 14.3866 3.67139 14.7891V23.4333C3.67139 23.8358 3.98457 24.1587 4.36698 24.1587H20.9907C21.3732 24.1587 21.6863 23.8358 21.6863 23.4333V14.7891C21.6863 14.3866 21.3732 14.0637 20.9907 14.0637C20.6083 14.0637 20.2951 14.3866 20.2951 14.7891V22.6579V22.7079H20.2451H5.11257Z" fill="white" stroke="#18171B" stroke-width="0.1"/>
<path d="M12.1893 0.261729L12.1893 0.261737L0.434158 12.4856L0.398119 12.451L0.434155 12.4857C0.161594 12.769 0.161594 13.2294 0.433968 13.5128C0.705589 13.7952 1.14495 13.7952 1.41633 13.5129L1.45238 13.5475L1.41634 13.5129L12.6442 1.83723L12.6803 1.79975L12.7163 1.83723L23.9428 13.5129C24.0788 13.6544 24.2565 13.7247 24.434 13.7247C24.6114 13.7247 24.7892 13.6543 24.9253 13.5129C25.1978 13.2295 25.1978 12.7691 24.9253 12.4856L13.1716 0.261741C13.1716 0.261739 13.1716 0.261737 13.1716 0.261735C12.9001 -0.0205401 12.4607 -0.020614 12.1893 0.261729Z" fill="white" stroke="#18171B" stroke-width="0.1"/>
</g>
<defs>
<clipPath id="clip0">
<rect width="25" height="26" fill="white" transform="matrix(-1 0 0 1 25.1797 0)"/>
</clipPath>
</defs>
</svg>
