<svg width="24" height="27" viewBox="0 0 24 27" fill="none" xmlns="http://www.w3.org/2000/svg">
<g opacity="0.75">
<path d="M16.3368 13.138L16.3504 13.1418L16.3644 13.1431C20.5259 13.5201 23.7978 17.0283 23.7978 21.2862V25.1178C23.7978 25.5303 23.4634 25.8646 23.051 25.8646H15.5473C15.1348 25.8646 14.8004 25.5303 14.8004 25.1178C14.8004 24.7053 15.1348 24.3709 15.5473 24.3709H22.1541H22.3041V24.2209V21.2862C22.3041 17.8875 19.754 15.0759 16.4672 14.6581L16.3942 14.6488L16.3422 14.7008L12.542 18.501L12.5419 18.5011C12.3961 18.6469 12.2052 18.7198 12.0139 18.7198C11.8225 18.7198 11.6317 18.6469 11.4858 18.501L7.68553 14.7008L7.63352 14.6488L7.56055 14.6581C4.27385 15.0758 1.72378 17.8875 1.72378 21.2862V24.2209V24.3709H1.87378H8.193C8.60549 24.3709 8.93985 24.7052 8.93985 25.1177C8.93985 25.5302 8.60549 25.8646 8.193 25.8646H0.97693C0.564441 25.8646 0.230078 25.5302 0.230078 25.1177V21.2861C0.230078 17.0282 3.50192 13.52 7.66349 13.143L7.67752 13.1417L7.69106 13.1379C7.74416 13.1227 7.79953 13.114 7.8562 13.1109L8.18112 13.0935L7.95683 12.8578C6.99972 11.8518 6.41082 10.4935 6.41082 8.9994V4.60859C6.41082 2.15836 8.40445 0.164648 10.8548 0.164648H16.8702C17.2827 0.164648 17.6171 0.499012 17.6171 0.9115V3.89676C17.6171 3.97882 17.6132 4.06088 17.6075 4.14394L17.6064 4.15964L17.6086 4.17523C17.6138 4.21266 17.6171 4.24726 17.6171 4.28097V8.99949C17.6171 10.4936 17.0282 11.8519 16.0711 12.8578L15.8468 13.0936L16.1717 13.111C16.2284 13.1141 16.2837 13.1228 16.3368 13.138ZM11.908 16.8107L12.014 16.9167L12.1201 16.8107L14.0721 14.8587L14.3282 14.6026H13.966H10.062H9.69991L9.95597 14.8587L11.908 16.8107ZM8.05461 7.44717H7.90461V7.59717V8.99949C7.90461 11.2655 9.74799 13.1088 12.014 13.1088C14.2801 13.1088 16.1235 11.2654 16.1235 8.9994V7.06677V6.80099L15.8959 6.93836C15.3613 7.26111 14.7356 7.44717 14.0668 7.44717H8.05461ZM7.90461 5.80347V5.95347H8.05461H14.0668C15.201 5.95347 16.1235 5.03098 16.1235 3.89676V1.80835V1.65835H15.9735H10.8549C9.22799 1.65835 7.90461 2.98173 7.90461 4.60859V5.74598V5.80347Z" fill="white" stroke="#18171B" stroke-width="0.3"/>
</g>
</svg>
