<svg width="20" height="21" viewBox="0 0 20 21" fill="none" xmlns="http://www.w3.org/2000/svg">
<path d="M6.2029 1.09248L2.20206 3.27258L1.23633 5.85309L1.51225 12.3489L5.00725 16.5756L5.55909 19.6455L8.6402 16.976L10.4797 16.5756L16.136 15.6413L18.3894 12.3489L18.9872 7.14335L17.0558 2.91664L13.8827 1.31494L6.2029 1.09248Z" fill="#7D3DAF" stroke="black"/>
<path d="M19.5526 4.80827L19.5467 4.78519C19.0642 2.89804 16.8889 0.873036 14.8913 0.451747L14.8688 0.447259C11.6377 -0.149086 8.36161 -0.149086 5.13123 0.447259L5.10803 0.451747C3.11108 0.873036 0.935843 2.89804 0.452678 4.78519L0.447375 4.80827C-0.149125 7.44373 -0.149125 10.1164 0.447375 12.7518L0.452678 12.7749C0.915231 14.5815 2.92849 16.5135 4.85154 17.0448V19.1514C4.85154 19.9138 5.8119 20.2883 6.35803 19.7381L8.56409 17.5195C9.04255 17.5454 9.52127 17.5599 10 17.5599C11.6265 17.5599 13.2536 17.4111 14.8688 17.1129L14.8913 17.1084C16.8889 16.6871 19.0642 14.6621 19.5467 12.775L19.5526 12.7519C20.1491 10.1164 20.1491 7.44373 19.5526 4.80827ZM17.8069 12.3697C17.4848 13.6008 15.8331 15.1315 14.5208 15.4142C12.8028 15.7303 11.0712 15.8654 9.3414 15.819C9.307 15.8181 9.27392 15.831 9.24993 15.8549C9.00444 16.0987 7.63918 17.4546 7.63918 17.4546L5.9259 19.1558C5.80064 19.2821 5.58059 19.1962 5.58059 19.0218V15.5321C5.58059 15.4744 5.53804 15.4255 5.47952 15.4144C5.47919 15.4143 5.47886 15.4142 5.47853 15.4142C4.16622 15.1314 2.51524 13.6008 2.19247 12.3696C1.65562 9.98743 1.65562 7.57255 2.19247 5.19038C2.51524 3.95922 4.16622 2.4286 5.47853 2.14582C8.47892 1.59372 11.5211 1.59372 14.5208 2.14582C15.8338 2.4286 17.4848 3.95922 17.8069 5.19038C18.3443 7.57262 18.3443 9.9875 17.8069 12.3697Z" fill="white"/>
<path d="M12.854 13.9808C12.6523 13.9215 12.46 13.8817 12.2815 13.81C10.4312 13.0673 8.72843 12.1092 7.37961 10.6405C6.61258 9.80526 6.01223 8.86233 5.50474 7.86445C5.26409 7.39122 5.06128 6.89946 4.85456 6.41091C4.66606 5.96538 4.9437 5.50511 5.23605 5.16942C5.51037 4.85438 5.86337 4.61328 6.24566 4.4356C6.54404 4.2969 6.83838 4.37686 7.05631 4.62155C7.52741 5.15057 7.96014 5.70664 8.31055 6.31985C8.52602 6.69703 8.4669 7.15807 8.07639 7.41476C7.98148 7.47715 7.89499 7.55038 7.80657 7.62085C7.72903 7.6826 7.65605 7.74499 7.6029 7.82861C7.50574 7.9816 7.5011 8.16205 7.56366 8.32838C8.04524 9.60879 8.85694 10.6044 10.189 11.1407C10.4021 11.2265 10.6162 11.3264 10.8618 11.2987C11.273 11.2522 11.4062 10.8158 11.6944 10.5878C11.976 10.3649 12.336 10.362 12.6394 10.5477C12.9429 10.7336 13.2371 10.9331 13.5295 11.1347C13.8166 11.3325 14.1024 11.5261 14.3671 11.7517C14.6217 11.9686 14.7094 12.2532 14.566 12.5476C14.3036 13.0868 13.9217 13.5353 13.3708 13.8216C13.2152 13.9023 13.0295 13.9285 12.854 13.9808C12.6523 13.9215 13.0295 13.9285 12.854 13.9808Z" fill="white"/>
<path d="M10.0047 3.81891C12.4248 3.88451 14.4126 5.4384 14.8385 7.75325C14.9111 8.14767 14.9369 8.55094 14.9692 8.95126C14.9828 9.11965 14.8843 9.27963 14.6964 9.28181C14.5024 9.28406 14.4151 9.12702 14.4025 8.9587C14.3776 8.62551 14.3603 8.29086 14.3129 7.96043C14.0623 6.21622 12.6248 4.77319 10.8303 4.46354C10.5603 4.41692 10.2839 4.40468 10.0104 4.37691C9.83746 4.35934 9.61099 4.34921 9.57268 4.14126C9.54054 3.96691 9.69264 3.82808 9.86424 3.81917C9.9109 3.81667 9.95782 3.81872 10.0047 3.81891C12.4248 3.88451 9.95782 3.81872 10.0047 3.81891Z" fill="white"/>
<path d="M13.6834 8.43175C13.6794 8.46099 13.6773 8.52973 13.6596 8.5945C13.5954 8.82957 13.227 8.85901 13.1421 8.62175C13.117 8.55134 13.1132 8.47125 13.1131 8.39546C13.1123 7.89953 13.0008 7.40412 12.7424 6.97263C12.4766 6.52916 12.0707 6.15634 11.5946 5.93076C11.3066 5.79437 10.9953 5.7096 10.6797 5.65907C10.5418 5.63701 10.4024 5.62361 10.2638 5.60495C10.0959 5.58238 10.0062 5.47882 10.0142 5.3187C10.0216 5.16866 10.1349 5.06074 10.3039 5.06997C10.8593 5.10049 11.3958 5.21662 11.8896 5.46959C12.8937 5.98405 13.4672 6.7961 13.6347 7.88042C13.6422 7.92954 13.6544 7.97821 13.6582 8.02752C13.6677 8.14929 13.6737 8.27119 13.6834 8.43175C13.6794 8.46099 13.6737 8.27119 13.6834 8.43175Z" fill="white"/>
<path d="M12.1776 8.37482C11.9751 8.37835 11.8668 8.26992 11.8459 8.09031C11.8314 7.96508 11.8199 7.83818 11.789 7.71634C11.7282 7.47639 11.5964 7.25402 11.3877 7.10698C11.2892 7.03754 11.1776 6.98694 11.0607 6.9543C10.9122 6.91282 10.7579 6.92423 10.6097 6.88909C10.4488 6.85094 10.3598 6.72487 10.3851 6.5788C10.4081 6.44587 10.5418 6.34212 10.6919 6.35264C11.6302 6.41817 12.3008 6.88749 12.3965 7.95616C12.4033 8.03157 12.4112 8.11128 12.3939 8.18341C12.3643 8.30692 12.2698 8.36879 12.1776 8.37482C11.9751 8.37835 12.2698 8.36879 12.1776 8.37482Z" fill="white"/>
</svg>
