<svg width="37" height="36" viewBox="0 0 37 36" fill="none" xmlns="http://www.w3.org/2000/svg">
<g opacity="0.75">
<mask id="mask0" mask-type="alpha" maskUnits="userSpaceOnUse" x="5" y="5" width="27" height="26">
<ellipse cx="18.5416" cy="18.0006" rx="13" ry="12.8377" transform="rotate(-120 18.5416 18.0006)" fill="#C4C4C4"/>
</mask>
<g mask="url(#mask0)">
<path d="M12.5108 7.15443C8.43133 9.50972 5.99926 13.8998 6.16415 18.6117C6.17308 18.8692 6.38958 19.0711 6.64731 19.0621C6.90505 19.053 7.10678 18.8367 7.09774 18.5789C6.9449 14.2132 9.19804 10.1455 12.9778 7.9633C14.2234 7.24415 15.5469 6.78143 16.8884 6.555C16.7806 6.86505 16.7393 7.19701 16.7716 7.5275C16.7723 7.61968 16.7862 7.71184 16.814 7.79989C16.4023 7.87959 15.9941 7.98369 15.5917 8.11499C14.8932 8.34256 14.2192 8.64412 13.583 9.01148C8.54013 11.923 6.80637 18.3941 9.71785 23.4369C12.6293 28.4798 19.1004 30.2139 24.1432 27.3024C29.1861 24.3909 30.92 17.9196 28.0085 12.8768C27.5035 12.0021 26.8742 11.2002 26.142 10.5046C24.7664 9.19769 23.0558 8.30754 21.2351 7.88677C21.343 7.48068 21.3388 7.04507 21.21 6.62999C24.3984 7.28096 27.3055 9.23844 29.0567 12.2716C32.3018 17.8922 30.3691 25.1052 24.7483 28.3503C19.1275 31.5955 11.9147 29.6627 8.66967 24.0421C8.05685 22.9807 7.6153 21.8411 7.35749 20.6553C7.30262 20.4032 7.0539 20.2432 6.80185 20.298C6.54981 20.3529 6.38976 20.6016 6.44463 20.8537C6.72303 22.134 7.19941 23.364 7.8606 24.5092C11.3633 30.576 19.1486 32.6621 25.2154 29.1594C30.2833 26.2335 32.5723 20.3193 31.1477 14.9148L33.2072 13.7257L33.6157 14.4333C33.7447 14.6566 34.0303 14.7334 34.2538 14.6043C34.4771 14.4754 34.5537 14.1895 34.4248 13.9662L29.1196 4.77739C28.7527 4.14175 28.971 3.32616 29.6067 2.95917L30.7445 2.30223L38.5342 15.7945L37.3964 16.4514C36.7608 16.8184 35.9454 16.5999 35.5784 15.9643L35.5146 15.8538C35.3857 15.6304 35.0998 15.5539 34.8765 15.6828C34.653 15.8118 34.5766 16.0976 34.7055 16.3209L34.7693 16.4314C35.3938 17.513 36.7819 17.885 37.8635 17.2605L39.1251 16.5321C39.5029 16.314 39.6327 15.829 39.4146 15.4512L31.4819 1.71148C31.2638 1.33367 30.7791 1.20379 30.4013 1.42192L29.1397 2.1503C28.058 2.77479 27.6861 4.16287 28.3106 5.24451L29.8727 7.9502L27.8138 9.1389C25.8127 7.15447 23.2274 5.92353 20.5057 5.56522C19.7931 4.96383 18.7507 4.83966 17.8979 5.33205C17.8021 5.38735 17.7121 5.44882 17.6276 5.51531C15.8756 5.68351 14.1319 6.21849 12.5108 7.15443ZM30.8679 13.9975C30.6084 13.2493 30.2758 12.5152 29.8656 11.8046C29.4552 11.0939 28.9854 10.439 28.4673 9.8401L30.3397 8.75906L32.7401 12.9166L30.8679 13.9975ZM13.6513 10.064L17.0512 15.9529C16.9062 16.0721 16.7752 16.2035 16.6588 16.3451L10.7711 12.946C11.4944 11.8189 12.4623 10.8288 13.6513 10.064ZM10.3054 13.7556L16.1927 17.1544C16.1279 17.328 16.0798 17.5072 16.0494 17.6898L9.25126 17.6898C9.32016 16.3198 9.68018 14.9762 10.3054 13.7556ZM10.303 22.5597C9.65562 21.3027 9.31247 19.9612 9.24972 18.6238L16.0482 18.6239C16.0781 18.8045 16.1261 18.9839 16.1922 19.1596L10.303 22.5597ZM10.77 23.3686L16.659 19.9686C16.7783 20.1135 16.9095 20.2449 17.0512 20.3612L13.652 26.2487C12.5251 25.5256 11.5349 24.5577 10.77 23.3686ZM14.4618 26.7146L17.8606 20.8273C18.0339 20.8923 18.2133 20.9405 18.3959 20.9709L18.3958 27.7686C17.0261 27.6997 15.6825 27.3397 14.4618 26.7146ZM19.3299 27.7703L19.3302 20.972C19.5109 20.9423 19.6903 20.8943 19.8661 20.8284L23.2659 26.717C22.0091 27.3643 20.6676 27.7074 19.3299 27.7703ZM24.0749 26.2499L20.6751 20.3611C20.8201 20.242 20.9513 20.1104 21.0675 19.969L26.9551 23.3679C26.232 24.4948 25.2641 25.485 24.0749 26.2499ZM27.4206 22.558L21.5337 19.1593C21.5986 18.986 21.6465 18.8065 21.6772 18.6238L28.4749 18.6241C28.4062 19.994 28.0461 21.3374 27.4206 22.558ZM27.423 13.754C28.0704 15.0109 28.4139 16.3525 28.4763 17.6899L21.6782 17.6898C21.6482 17.509 21.6001 17.3296 21.5341 17.1539L27.423 13.754ZM20.5254 17.1972C21.0548 18.114 20.7396 19.2903 19.823 19.8195C18.9063 20.3487 17.7301 20.0335 17.2007 19.1167C16.6715 18.2001 16.9867 17.0238 17.9033 16.4946C18.82 15.9654 19.9962 16.2805 20.5254 17.1972ZM26.956 12.9451L21.0671 16.3451C20.9477 16.2001 20.8166 16.0687 20.6749 15.9527L24.0743 10.0648C25.201 10.788 26.1911 11.7559 26.956 12.9451ZM23.2644 9.59925L19.8654 15.4867C19.6921 15.4217 19.5128 15.3737 19.3301 15.3431L19.3302 11.1528C19.4052 11.0916 19.4705 11.0143 19.5218 10.9223L20.6453 8.91347C20.7019 8.85693 20.7545 8.79737 20.8042 8.73614C21.6576 8.91161 22.4861 9.20052 23.2644 9.59925ZM19.2058 9.57337L18.9157 10.0922L18.6594 9.54759C18.839 9.57775 19.0225 9.58688 19.2058 9.57337ZM18.2528 10.8776C18.2907 10.9582 18.3398 11.0278 18.396 11.0877L18.3959 15.3422C18.2153 15.3721 18.036 15.4198 17.8603 15.4858L14.4603 9.59688C15.347 9.14024 16.2758 8.83525 17.2156 8.67323L18.2528 10.8776ZM20.1986 6.63245C20.5686 7.27335 20.3482 8.09604 19.7073 8.46606C19.0662 8.83621 18.2437 8.61565 17.8737 7.97475C17.5035 7.33363 17.7237 6.51107 18.3649 6.14092C19.0058 5.77089 19.8284 5.99133 20.1986 6.63245Z" fill="white"/>
</g>
</g>
</svg>
