<svg width="20" height="20" viewBox="0 0 20 20" fill="none" xmlns="http://www.w3.org/2000/svg">
<g clip-path="url(#clip0)">
<path d="M0.683979 16.2903C1.08041 15.9235 1.60132 15.721 2.14135 15.7237C2.23903 15.7269 2.33637 15.7367 2.43272 15.7529L4.20662 12.7964C2.67382 11.5981 2.4027 9.38405 3.60106 7.85125C3.90336 7.46458 4.2831 7.14538 4.71597 6.91404L3.1451 4.29592C3.04876 4.31216 2.95137 4.32193 2.85373 4.32514C1.66473 4.33386 0.69383 3.37707 0.685106 2.18807C0.676382 0.999062 1.63321 0.0281214 2.82222 0.0193972C4.01122 0.0106729 4.98212 0.967463 4.99085 2.15647C4.9949 2.70652 4.78823 3.23728 4.41325 3.63976L6.12304 6.48943C6.22206 6.48371 6.3161 6.46238 6.41583 6.46238C7.1419 6.46284 7.85028 6.68666 8.44478 7.10355L14.2866 3.21019C14.2694 3.10762 14.2579 3.00414 14.2524 2.90029C14.239 1.31314 15.5147 0.0156403 17.1019 0.00224082C18.689 -0.0111587 19.9865 1.26459 19.9999 2.85174C20.0133 4.43889 18.7375 5.73638 17.1504 5.74978C16.2256 5.75759 15.3536 5.31991 14.8073 4.57376L9.4343 8.15576C9.65934 8.50999 9.81929 8.90154 9.90662 9.312H14.3835C14.7769 8.19913 15.998 7.61594 17.1109 8.00941C18.2238 8.40288 18.807 9.62399 18.4135 10.7368C18.02 11.8497 16.7989 12.4329 15.6861 12.0394C15.0774 11.8242 14.5987 11.3455 14.3835 10.7368H9.90666C9.81954 11.1472 9.65984 11.5388 9.43505 11.8931L14.8074 15.4751C15.7384 14.2145 17.515 13.9472 18.7756 14.8782C20.0362 15.8092 20.3034 17.5859 19.3725 18.8465C18.4415 20.1071 16.6648 20.3743 15.4042 19.4433C14.6763 18.9058 14.2485 18.0533 14.2524 17.1485C14.257 17.0447 14.2675 16.9412 14.2837 16.8386L8.44195 12.9453C7.58342 13.5606 6.48871 13.7447 5.47615 13.444L3.69511 16.4076C4.49419 17.2715 4.44164 18.6197 3.57772 19.4188C2.71381 20.2178 1.36564 20.1653 0.566557 19.3014C-0.232529 18.4375 -0.179932 17.0893 0.683979 16.2903ZM2.85378 1.47547C2.46031 1.47547 2.14135 1.79443 2.14135 2.1879C2.14135 2.58137 2.46031 2.90033 2.85378 2.90033C3.24725 2.90033 3.5662 2.58137 3.5662 2.1879C3.5662 1.79443 3.24725 1.47547 2.85378 1.47547ZM17.102 4.3251C17.8889 4.3251 18.5268 3.68718 18.5268 2.90029C18.5268 2.11339 17.8889 1.47547 17.102 1.47547C16.3151 1.47547 15.6772 2.11339 15.6772 2.90029C15.6772 3.68718 16.3151 4.3251 17.102 4.3251ZM16.3896 10.7368C16.7831 10.7368 17.1021 10.4179 17.1021 10.0244C17.1021 9.63092 16.7831 9.31196 16.3896 9.31196C15.9962 9.31196 15.6772 9.63092 15.6772 10.0244C15.6772 10.4179 15.9962 10.7368 16.3896 10.7368ZM17.102 18.5734C17.8889 18.5734 18.5268 17.9355 18.5268 17.1486C18.5268 16.3617 17.8889 15.7238 17.102 15.7238C16.3151 15.7238 15.6772 16.3617 15.6772 17.1486C15.6772 17.9355 16.3151 18.5734 17.102 18.5734ZM6.41583 12.1617C7.59619 12.1617 8.55306 11.2048 8.55306 10.0244C8.55306 8.84406 7.59619 7.88719 6.41583 7.88719C5.23546 7.88719 4.27859 8.84406 4.27859 10.0244C4.27859 11.2048 5.23546 12.1617 6.41583 12.1617ZM2.14135 18.5734C2.53482 18.5734 2.85378 18.2544 2.85378 17.861C2.85378 17.4675 2.53482 17.1485 2.14135 17.1485C1.74788 17.1485 1.42892 17.4675 1.42892 17.861C1.42892 18.2544 1.74792 18.5734 2.14135 18.5734Z" fill="#807F85"/>
</g>
<defs>
<clipPath id="clip0">
<rect width="20" height="20" fill="white" transform="matrix(-1 0 0 1 20 0)"/>
</clipPath>
</defs>
</svg>
