<svg width="20" height="20" viewBox="0 0 20 20" fill="none" xmlns="http://www.w3.org/2000/svg">
<g clip-path="url(#clip0)">
<path d="M15.545 12.8944C15.0077 12.8944 14.5735 13.3287 14.5735 13.8659V16.9176C14.5735 17.454 14.1382 17.8892 13.6019 17.8892H2.91468C2.37836 17.8892 1.94313 17.4539 1.94313 16.9176V4.28732C1.94313 3.751 2.3784 3.31577 2.91468 3.31577H8.55946C9.09672 3.31577 9.531 2.88148 9.531 2.34423C9.531 1.80697 9.09672 1.37268 8.55946 1.37268H2.91468C1.30771 1.3726 0 2.68035 0 4.28732V16.9176C0 18.5246 1.30771 19.8323 2.91468 19.8323H13.6019C15.2088 19.8323 16.5165 18.5256 16.5165 16.9176V13.866C16.5166 13.3287 16.0823 12.8944 15.545 12.8944Z" fill="#807F85"/>
<path d="M18.914 1.24913C18.2086 0.543792 17.2875 0.188173 16.3597 0.16876C15.3833 0.147393 14.401 0.501019 13.6626 1.24038L7.08513 7.81788C6.12523 8.78169 5.59668 10.0603 5.59668 11.4185V13.5948C5.59668 14.132 6.03097 14.5663 6.56823 14.5663H8.74452C10.1028 14.5663 11.3813 14.0378 12.3461 13.0769L18.9149 6.50814C20.3625 5.05961 20.3625 2.69872 18.914 1.24913ZM10.9733 11.7022C10.3778 12.2959 9.58497 12.6233 8.7446 12.6233H7.53981V11.4185C7.53981 10.5781 7.86723 9.78531 8.45987 9.19071L12.796 4.85461L15.3084 7.36707L10.9733 11.7022ZM17.5401 5.13539L16.6822 5.99331L14.1698 3.48085L15.0277 2.62297C15.7214 1.92928 16.8484 1.93123 17.5401 2.62297C18.2319 3.31566 18.2319 4.44267 17.5401 5.13539Z" fill="#807F85"/>
</g>
<defs>
<clipPath id="clip0">
<rect width="20" height="20" fill="white"/>
</clipPath>
</defs>
</svg>
