<svg width="20" height="21" viewBox="0 0 20 21" fill="none" xmlns="http://www.w3.org/2000/svg">
<g clip-path="url(#clip0)">
<path d="M10.0045 6.38159C12.3029 6.38159 14.1729 8.25155 14.1729 10.55C14.1729 12.8484 12.3029 14.7184 10.0045 14.7184C7.70602 14.7184 5.83606 12.8484 5.83606 10.55C5.83606 8.25155 7.70598 6.38159 10.0045 6.38159ZM10.0045 13.051C11.3834 13.051 12.5055 11.9289 12.5055 10.55C12.5055 9.17108 11.3834 8.04894 10.0045 8.04894C8.62473 8.04894 7.5034 9.17108 7.5034 10.55C7.5034 11.9289 8.62555 13.051 10.0045 13.051Z" fill="#807F85"/>
<path d="M0.715313 8.05902L3.08547 7.67718L1.6682 5.79308C1.41977 5.4621 1.45062 5.00027 1.74074 4.70597L4.10922 2.30414C4.4027 2.00566 4.86953 1.97148 5.20219 2.2216L7.13883 3.58218L7.51398 1.24789C7.57902 0.84355 7.9275 0.546753 8.33684 0.546753H11.6716C12.0867 0.546753 12.4386 0.85187 12.4969 1.26207L12.8871 3.62472L14.8137 2.21574C15.1463 1.9723 15.604 2.0073 15.895 2.29828L18.2543 4.64925C18.5494 4.94269 18.5819 5.40875 18.3318 5.74136L16.9504 7.67468L19.2847 8.00816C19.6949 8.06652 20 8.41836 20 8.83351V12.1682C20 12.5834 19.6949 12.9352 19.2847 12.9919L16.9145 13.3737L18.3318 15.2578C18.5819 15.5905 18.5494 16.0548 18.2551 16.3491L15.8958 18.7084C15.6015 19.0044 15.1363 19.0344 14.8045 18.7851L12.872 17.4037L12.5386 19.738C12.4802 20.1482 12.1284 20.4533 11.7132 20.4533H8.37848C7.96332 20.4533 7.61148 20.149 7.55312 19.7405L7.17129 17.3703L5.28719 18.7876C4.95371 19.0377 4.48938 19.0061 4.1959 18.7109L1.8366 16.3516C1.5423 16.0573 1.5098 15.5921 1.75992 15.2603L3.16301 13.3304L0.736992 13.0469C0.316797 12.9986 0 12.6426 0 12.2191V8.88437C0 8.46918 0.305119 8.11738 0.715313 8.05902ZM1.66652 11.4763L3.36805 11.6747C3.98746 11.7555 4.5052 12.1707 4.69777 12.7059C4.93953 13.2528 4.86867 13.8923 4.50852 14.3783L3.52645 15.683L4.86199 17.0186L6.17254 16.0323C6.65523 15.6755 7.29469 15.6046 7.78738 15.8273C8.3743 16.0398 8.78945 16.5576 8.87035 17.1678L9.10043 18.786H10.9896L11.2205 17.1778C11.3014 16.5584 11.7166 16.0407 12.2509 15.8489C12.797 15.6072 13.4348 15.6764 13.9241 16.0373L15.2289 17.0194L16.5644 15.6839L15.5782 14.3733C15.2222 13.8923 15.1513 13.2537 15.3731 12.7585C15.5865 12.1716 16.1034 11.7555 16.7145 11.6755L18.3327 11.4454V9.55628L16.7237 9.32535C16.1043 9.24449 15.5865 8.82929 15.3948 8.29492C15.1521 7.74804 15.223 7.11027 15.5823 6.62171L16.5636 5.31785L15.2239 3.9823L13.8758 4.96773C13.3939 5.32453 12.7562 5.39293 12.261 5.17281C11.6732 4.95937 11.2589 4.44 11.1797 3.83226L10.9487 2.21324H9.04711L8.78867 3.82058C8.70863 4.44085 8.2943 4.95937 7.75742 5.15281C7.21137 5.39293 6.57277 5.32453 6.08758 4.96523L4.78535 3.99148L3.43063 5.36371L4.4202 6.67843C4.77617 7.15949 4.84703 7.79808 4.62527 8.2941C4.41184 8.88183 3.89246 9.29617 3.28473 9.37539L1.66656 9.60632V11.4763H1.66652Z" fill="#807F85"/>
</g>
<defs>
<clipPath id="clip0">
<rect width="20" height="20" fill="white" transform="matrix(-1 0 0 1 20 0.5)"/>
</clipPath>
</defs>
</svg>
