<svg width="20" height="20" viewBox="0 0 20 20" fill="none" xmlns="http://www.w3.org/2000/svg">
<path d="M19.4141 8.24219H18.8281C18.8281 7.96508 18.8281 0.606719 18.8281 0.585938C18.8281 0.262344 18.5658 0 18.2422 0H14.7266C14.403 0 14.1406 0.262344 14.1406 0.585938V1.17188H10.625C10.4089 1.17188 10.2104 1.29082 10.1084 1.48133C10.0064 1.67184 10.0176 1.90301 10.1375 2.08281L11.0927 3.51562L10.1375 4.9484C10.0176 5.1282 10.0064 5.35938 10.1084 5.54988C10.2104 5.74039 10.4089 5.85938 10.625 5.85938H14.7266C15.0502 5.85938 15.3125 5.59703 15.3125 5.27344V4.6875H17.6562V8.24219H14.7266C14.403 8.24219 14.1406 8.50453 14.1406 8.82812V11.7578H10.0391C9.71547 11.7578 9.45312 12.0202 9.45312 12.3438V14.1016H5.3125C4.98891 14.1016 4.72656 14.3639 4.72656 14.6875V16.4453H0.585938C0.262344 16.4453 0 16.7077 0 17.0312V19.4141C0 19.7377 0.262344 20 0.585938 20H19.4141C19.7377 20 20 19.7377 20 19.4141V8.82812C20 8.50453 19.7377 8.24219 19.4141 8.24219ZM14.1406 4.6875H11.7198L12.2844 3.84066C12.4156 3.64383 12.4156 3.38742 12.2844 3.19062L11.7198 2.34375H14.1406V4.6875ZM15.3125 1.17188H17.6562V3.51562H15.3125V1.17188ZM1.17188 17.6172H4.72656V18.8281H1.17188V17.6172ZM5.89844 15.2734H9.45312V18.8281H5.89844V15.2734ZM10.625 12.9297H14.1406V18.8281H10.625V12.9297ZM18.8281 18.8281H15.3125V9.41406H18.8281V18.8281Z" fill="#807F85"/>
</svg>
